G04 PROTEUS GERBER X2 FILE*
%TF.GenerationSoftware,Labcenter,Proteus,8.13-SP0-Build31525*%
%TF.CreationDate,2026-05-22T19:34:29+00:00*%
%TF.FileFunction,Copper,L2,Bot*%
%TF.FilePolarity,Positive*%
%TF.Part,Single*%
%TF.SameCoordinates,{f0e7e01f-7bb1-4ff0-ab76-a4da33298f90}*%
%FSLAX45Y45*%
%MOMM*%
G01*
%TA.AperFunction,Conductor*%
%ADD21C,0.762000*%
%ADD22C,1.016000*%
%ADD23C,0.254000*%
%TA.AperFunction,OtherPad,Unknown*%
%ADD10C,4.572000*%
%TA.AperFunction,TestPad*%
%ADD11C,0.025400*%
%TA.AperFunction,ComponentPad*%
%ADD12R,1.414210X1.414210*%
%ADD13C,2.000000*%
%ADD14C,2.997200*%
%TA.AperFunction,ComponentPad*%
%ADD15R,2.032000X2.032000*%
%TA.AperFunction,ComponentPad*%
%ADD16C,3.048000*%
%ADD17C,2.032000*%
%ADD18C,1.778000*%
%ADD19C,3.810000*%
%TA.AperFunction,ComponentPad*%
%ADD70R,1.270000X1.270000*%
%ADD71C,1.270000*%
%TA.AperFunction,Profile*%
%ADD20C,0.203200*%
%TD.AperFunction*%
G36*
X+4407101Y+2642033D02*
X+4407101Y+2357967D01*
X+4607967Y+2157101D01*
X+4892033Y+2157101D01*
X+4998658Y+2263726D01*
X+4998658Y-4513726D01*
X+4892033Y-4407101D01*
X+4607967Y-4407101D01*
X+4407101Y-4607967D01*
X+4407101Y-4892033D01*
X+4547288Y-5032220D01*
X-4297288Y-5032220D01*
X-4157101Y-4892033D01*
X-4157101Y-4607967D01*
X-4357967Y-4407101D01*
X-4642033Y-4407101D01*
X-4828622Y-4593690D01*
X-4828622Y+2343690D01*
X-4642033Y+2157101D01*
X-4357967Y+2157101D01*
X-4157101Y+2357967D01*
X-4157101Y+2642033D01*
X-4310128Y+2795060D01*
X+4560128Y+2795060D01*
X+4407101Y+2642033D01*
G37*
%LPC*%
G36*
X+2907762Y+2607762D02*
X+3099625Y+2415899D01*
X+3673899Y+2415899D01*
X+3673899Y+1984101D01*
X+3102399Y+1984101D01*
X+3102399Y+1863125D01*
X+3252399Y+1713125D01*
X+3252399Y+1693766D01*
X+3365570Y+1806937D01*
X+3533906Y+1806937D01*
X+3652937Y+1687906D01*
X+3652937Y+1519570D01*
X+3586566Y+1453199D01*
X+3692168Y+1453199D01*
X+3811199Y+1334168D01*
X+3811199Y+1165832D01*
X+3692168Y+1046801D01*
X+3523832Y+1046801D01*
X+3404801Y+1165832D01*
X+3404801Y+1334168D01*
X+3471172Y+1400539D01*
X+3365570Y+1400539D01*
X+3252399Y+1513710D01*
X+3252399Y+1384968D01*
X+3303199Y+1334168D01*
X+3303199Y+1165832D01*
X+3252399Y+1115032D01*
X+3252399Y+743875D01*
X+3118024Y+609500D01*
X+3263125Y+464399D01*
X+3486701Y+464399D01*
X+3486701Y+787299D01*
X+3489255Y+787299D01*
X+3486701Y+789853D01*
X+3486701Y+937147D01*
X+3590853Y+1041299D01*
X+3738147Y+1041299D01*
X+3842299Y+937147D01*
X+3842299Y+789853D01*
X+3839745Y+787299D01*
X+3842299Y+787299D01*
X+3842299Y+761899D01*
X+4000801Y+761899D01*
X+4000801Y+780168D01*
X+4119832Y+899199D01*
X+4288168Y+899199D01*
X+4407199Y+780168D01*
X+4407199Y+611832D01*
X+4288168Y+492801D01*
X+4216325Y+492801D01*
X+4187923Y+464399D01*
X+4413125Y+464399D01*
X+4902399Y-24875D01*
X+4902399Y-2809277D01*
X+4829552Y-2882124D01*
X+4829552Y-2953967D01*
X+4710521Y-3072998D01*
X+4656638Y-3072998D01*
X+4555036Y-3174600D01*
X+4710521Y-3174600D01*
X+4829552Y-3293631D01*
X+4829552Y-3461967D01*
X+4710521Y-3580998D01*
X+4542185Y-3580998D01*
X+4423154Y-3461967D01*
X+4423154Y-3410292D01*
X+4391647Y-3441799D01*
X+4373725Y-3441799D01*
X+4152399Y-3663125D01*
X+4152399Y-3784101D01*
X+4719899Y-3784101D01*
X+4719899Y-4215899D01*
X+4150293Y-4215899D01*
X+4150293Y-4329231D01*
X+3763199Y-4716325D01*
X+3763199Y-4788168D01*
X+3644168Y-4907199D01*
X+3475832Y-4907199D01*
X+3356801Y-4788168D01*
X+3356801Y-4619832D01*
X+3475832Y-4500801D01*
X+3547675Y-4500801D01*
X+3832577Y-4215899D01*
X+3780101Y-4215899D01*
X+3780101Y-3784101D01*
X+3847601Y-3784101D01*
X+3847601Y-3536875D01*
X+4140201Y-3244275D01*
X+4140201Y-3190353D01*
X+4193554Y-3137000D01*
X+4140201Y-3083647D01*
X+4140201Y-2936353D01*
X+4244353Y-2832201D01*
X+4391647Y-2832201D01*
X+4404347Y-2844901D01*
X+4417767Y-2844901D01*
X+4423154Y-2839514D01*
X+4423154Y-2785631D01*
X+4542185Y-2666600D01*
X+4597601Y-2666600D01*
X+4597601Y-151125D01*
X+4286875Y+159601D01*
X+3136875Y+159601D01*
X+2864775Y+431701D01*
X+2828853Y+431701D01*
X+2724701Y+535853D01*
X+2724701Y+683147D01*
X+2778054Y+736500D01*
X+2724701Y+789853D01*
X+2724701Y+937147D01*
X+2734454Y+946900D01*
X+2704437Y+1228001D01*
X+2572382Y+1353196D01*
X+2547601Y+1410839D01*
X+2547601Y+1430234D01*
X+2517906Y+1400539D01*
X+2349570Y+1400539D01*
X+2230539Y+1519570D01*
X+2230539Y+1687906D01*
X+2281339Y+1738706D01*
X+2281339Y+2163125D01*
X+2465815Y+2347601D01*
X-886875Y+2347601D01*
X-1147601Y+2086875D01*
X-1147601Y+236875D01*
X-1486077Y-101601D01*
X-1436875Y-101601D01*
X-1151601Y-386875D01*
X-1151601Y-667125D01*
X-2316297Y-1831821D01*
X-2129582Y-1831821D01*
X-2053244Y-1908159D01*
X-1984766Y-1839681D01*
X-1807234Y-1839681D01*
X-1802399Y-1844516D01*
X-1802399Y-1686875D01*
X-1463125Y-1347601D01*
X-533125Y-1347601D01*
X-422399Y-1236875D01*
X-422399Y-1215899D01*
X-993899Y-1215899D01*
X-993899Y-784101D01*
X-930399Y-784101D01*
X-930399Y+1898725D01*
X-672725Y+2156399D01*
X+534101Y+2156399D01*
X+534101Y+2219899D01*
X+965899Y+2219899D01*
X+965899Y+2152399D01*
X+1063126Y+2152399D01*
X+1152399Y+2063125D01*
X+1402399Y+1813126D01*
X+1402399Y-186875D01*
X+1812399Y-596875D01*
X+1812399Y-1132077D01*
X+2096875Y-847601D01*
X+3313125Y-847601D01*
X+3652399Y-1186875D01*
X+3652399Y-1284101D01*
X+3715899Y-1284101D01*
X+3715899Y-1715899D01*
X+3398399Y-1715899D01*
X+3398399Y-2348625D01*
X+3199423Y-2547601D01*
X+3540875Y-2547601D01*
X+4051601Y-2036875D01*
X+4051601Y-454968D01*
X+4000801Y-404168D01*
X+4000801Y-235832D01*
X+4119832Y-116801D01*
X+4288168Y-116801D01*
X+4407199Y-235832D01*
X+4407199Y-404168D01*
X+4356399Y-454968D01*
X+4356399Y-2163125D01*
X+3687323Y-2832201D01*
X+3733799Y-2832201D01*
X+3733799Y-3187799D01*
X+3731245Y-3187799D01*
X+3733799Y-3190353D01*
X+3733799Y-3337647D01*
X+3629647Y-3441799D01*
X+3482353Y-3441799D01*
X+3378201Y-3337647D01*
X+3378201Y-3190353D01*
X+3380755Y-3187799D01*
X+3378201Y-3187799D01*
X+3378201Y-3162399D01*
X+3363125Y-3162399D01*
X+2923125Y-3602399D01*
X+936875Y-3602399D01*
X+783865Y-3449389D01*
X+603267Y-3449389D01*
X+552467Y-3500189D01*
X+384131Y-3500189D01*
X+265100Y-3381158D01*
X+265100Y-3212822D01*
X+375523Y-3102399D01*
X+263125Y-3102399D01*
X+102399Y-3263125D01*
X+102399Y-4238215D01*
X+66333Y-4305604D01*
X-44782Y-4379681D01*
X-29234Y-4379681D01*
X+9000Y-4417915D01*
X+47234Y-4379681D01*
X+224766Y-4379681D01*
X+263000Y-4417915D01*
X+301234Y-4379681D01*
X+478766Y-4379681D01*
X+517000Y-4417915D01*
X+555234Y-4379681D01*
X+732766Y-4379681D01*
X+771000Y-4417915D01*
X+809234Y-4379681D01*
X+986766Y-4379681D01*
X+1025000Y-4417915D01*
X+1063234Y-4379681D01*
X+1240766Y-4379681D01*
X+1279000Y-4417915D01*
X+1317234Y-4379681D01*
X+1494766Y-4379681D01*
X+1507601Y-4392516D01*
X+1507601Y-4391187D01*
X+1368495Y-4252081D01*
X+1152968Y-4252081D01*
X+974421Y-4073534D01*
X+974421Y-3821030D01*
X+1152968Y-3642483D01*
X+1405472Y-3642483D01*
X+1584019Y-3821030D01*
X+1584019Y-4036557D01*
X+1812399Y-4264937D01*
X+1812399Y-4443314D01*
X+1874299Y-4505214D01*
X+1874299Y-4682746D01*
X+1748766Y-4808279D01*
X+1571234Y-4808279D01*
X+1533000Y-4770045D01*
X+1494766Y-4808279D01*
X+1317234Y-4808279D01*
X+1279000Y-4770045D01*
X+1240766Y-4808279D01*
X+1063234Y-4808279D01*
X+1025000Y-4770045D01*
X+986766Y-4808279D01*
X+809234Y-4808279D01*
X+771000Y-4770045D01*
X+732766Y-4808279D01*
X+555234Y-4808279D01*
X+517000Y-4770045D01*
X+478766Y-4808279D01*
X+301234Y-4808279D01*
X+263000Y-4770045D01*
X+224766Y-4808279D01*
X+47234Y-4808279D01*
X+9000Y-4770045D01*
X-29234Y-4808279D01*
X-206766Y-4808279D01*
X-245000Y-4770045D01*
X-283234Y-4808279D01*
X-460766Y-4808279D01*
X-499000Y-4770045D01*
X-537234Y-4808279D01*
X-714766Y-4808279D01*
X-753000Y-4770045D01*
X-791234Y-4808279D01*
X-968766Y-4808279D01*
X-1007000Y-4770045D01*
X-1045234Y-4808279D01*
X-1222766Y-4808279D01*
X-1261000Y-4770045D01*
X-1299234Y-4808279D01*
X-1476766Y-4808279D01*
X-1515000Y-4770045D01*
X-1553234Y-4808279D01*
X-1730766Y-4808279D01*
X-1769000Y-4770045D01*
X-1807234Y-4808279D01*
X-1984766Y-4808279D01*
X-2055739Y-4737306D01*
X-2129582Y-4811149D01*
X-2348418Y-4811149D01*
X-2503159Y-4656408D01*
X-2503159Y-4437572D01*
X-2467986Y-4402399D01*
X-3363125Y-4402399D01*
X-3515524Y-4250000D01*
X-4165899Y-4250000D01*
X-4165899Y-3818202D01*
X-3473165Y-3818202D01*
X-3579199Y-3712168D01*
X-3579199Y-3543832D01*
X-3460168Y-3424801D01*
X-3291832Y-3424801D01*
X-3172801Y-3543832D01*
X-3172801Y-3712168D01*
X-3278835Y-3818202D01*
X-3226101Y-3818202D01*
X-3226101Y-4097601D01*
X-2413125Y-4097601D01*
X-2342703Y-4027179D01*
X-2496168Y-4027179D01*
X-2615199Y-3908148D01*
X-2615199Y-3836305D01*
X-3099105Y-3352399D01*
X-3927125Y-3352399D01*
X-4264039Y-3015485D01*
X-4335353Y-3086799D01*
X-4482647Y-3086799D01*
X-4586799Y-2982647D01*
X-4586799Y-2835353D01*
X-4584245Y-2832799D01*
X-4586799Y-2832799D01*
X-4586799Y-2477201D01*
X-4418166Y-2477201D01*
X-4511199Y-2384168D01*
X-4511199Y-2215832D01*
X-4392168Y-2096801D01*
X-4223832Y-2096801D01*
X-4104801Y-2215832D01*
X-4104801Y-2384168D01*
X-4223832Y-2503199D01*
X-4231201Y-2503199D01*
X-4231201Y-2617275D01*
X-3800875Y-3047601D01*
X-3759845Y-3047601D01*
X-3824799Y-2982647D01*
X-3824799Y-2835353D01*
X-3771446Y-2782000D01*
X-3824799Y-2728647D01*
X-3824799Y-2581353D01*
X-3765099Y-2521653D01*
X-3765099Y-2503199D01*
X-3884168Y-2503199D01*
X-4003199Y-2384168D01*
X-4003199Y-2215832D01*
X-3884168Y-2096801D01*
X-3715832Y-2096801D01*
X-3677732Y-2134901D01*
X-3668385Y-2134901D01*
X-2679108Y-1145624D01*
X-2794806Y-1029927D01*
X-2794806Y-851071D01*
X-2668335Y-724600D01*
X-2522898Y-724600D01*
X-2522898Y-692611D01*
X-2560998Y-654511D01*
X-2560998Y-622486D01*
X-2662600Y-520884D01*
X-2662600Y-654511D01*
X-2781631Y-773542D01*
X-2949967Y-773542D01*
X-2982101Y-741408D01*
X-2982101Y-770248D01*
X-3108572Y-896719D01*
X-3111762Y-896719D01*
X-3019002Y-989479D01*
X-3019002Y-1157815D01*
X-3138033Y-1276846D01*
X-3306369Y-1276846D01*
X-3425400Y-1157815D01*
X-3425400Y-1108052D01*
X-3426462Y-1107022D01*
X-3527002Y-1006482D01*
X-3527002Y-1157815D01*
X-3646033Y-1276846D01*
X-3814369Y-1276846D01*
X-3933400Y-1157815D01*
X-3933400Y-989479D01*
X-3814369Y-870448D01*
X-3663036Y-870448D01*
X-3668386Y-865099D01*
X-4029301Y-504183D01*
X-4029301Y-589610D01*
X-4185530Y-745839D01*
X-4406470Y-745839D01*
X-4562699Y-589610D01*
X-4562699Y-368670D01*
X-4419169Y-225140D01*
X-4562699Y-81610D01*
X-4562699Y+139330D01*
X-4406470Y+295559D01*
X-4185530Y+295559D01*
X-4029301Y+139330D01*
X-4029301Y-37215D01*
X-3750000Y-316516D01*
X-3568385Y-134901D01*
X-3428899Y-134901D01*
X-3428899Y-34101D01*
X-2857399Y-34101D01*
X-2857399Y-13125D01*
X-3443899Y+573375D01*
X-3443899Y+768953D01*
X-3469299Y+794353D01*
X-3469299Y+941647D01*
X-3415946Y+995000D01*
X-3469299Y+1048353D01*
X-3469299Y+1137775D01*
X-3702325Y+1370801D01*
X-3774168Y+1370801D01*
X-3893199Y+1489832D01*
X-3893199Y+1658168D01*
X-3842399Y+1708968D01*
X-3842399Y+2112125D01*
X-3570899Y+2383625D01*
X-3570899Y+2449899D01*
X-2377101Y+2449899D01*
X-2377101Y+2018101D01*
X-2948601Y+2018101D01*
X-2948601Y+1644240D01*
X-2954801Y+1632562D01*
X-2954801Y+1612325D01*
X-2857101Y+1514625D01*
X-2857101Y+1086875D01*
X-3113701Y+830275D01*
X-3113701Y+794353D01*
X-3139101Y+768953D01*
X-3139101Y+699625D01*
X-2586480Y+147004D01*
X-2568386Y+165099D01*
X-2265899Y+165099D01*
X-2265899Y+385401D01*
X-2462425Y+385401D01*
X-2681899Y+604875D01*
X-2681899Y+690201D01*
X-2707299Y+690201D01*
X-2707299Y+1045799D01*
X-2704745Y+1045799D01*
X-2707299Y+1048353D01*
X-2707299Y+1195647D01*
X-2603147Y+1299799D01*
X-2455853Y+1299799D01*
X-2351701Y+1195647D01*
X-2351701Y+1048353D01*
X-2354255Y+1045799D01*
X-2351701Y+1045799D01*
X-2351701Y+705725D01*
X-2336175Y+690199D01*
X-1736967Y+690199D01*
X-1686167Y+740999D01*
X-1517831Y+740999D01*
X-1452399Y+675567D01*
X-1452399Y+2213125D01*
X-1013125Y+2652399D01*
X+2863125Y+2652399D01*
X+2907762Y+2607762D01*
G37*
G36*
X+2345582Y-4282831D02*
X+2564418Y-4282831D01*
X+2719159Y-4437572D01*
X+2719159Y-4656408D01*
X+2564418Y-4811149D01*
X+2345582Y-4811149D01*
X+2190841Y-4656408D01*
X+2190841Y-4437572D01*
X+2345582Y-4282831D01*
G37*
G36*
X+3644168Y-3891199D02*
X+3475832Y-3891199D01*
X+3356801Y-3772168D01*
X+3356801Y-3603832D01*
X+3475832Y-3484801D01*
X+3644168Y-3484801D01*
X+3763199Y-3603832D01*
X+3763199Y-3772168D01*
X+3644168Y-3891199D01*
G37*
G36*
X-2446801Y+1684168D02*
X-2446801Y+1515832D01*
X-2565832Y+1396801D01*
X-2734168Y+1396801D01*
X-2853199Y+1515832D01*
X-2853199Y+1684168D01*
X-2734168Y+1803199D01*
X-2565832Y+1803199D01*
X-2446801Y+1684168D01*
G37*
G36*
X-3774168Y+761199D02*
X-3605832Y+761199D01*
X-3486801Y+642168D01*
X-3486801Y+473832D01*
X-3605832Y+354801D01*
X-3774168Y+354801D01*
X-3893199Y+473832D01*
X-3893199Y+642168D01*
X-3774168Y+761199D01*
G37*
%LPD*%
G36*
X+1097601Y+1686875D02*
X+1097601Y-313125D01*
X+1507601Y-723125D01*
X+1507601Y-1852516D01*
X+1494766Y-1839681D01*
X+1317234Y-1839681D01*
X+1279000Y-1877915D01*
X+1240766Y-1839681D01*
X+1063234Y-1839681D01*
X+1025000Y-1877915D01*
X+986766Y-1839681D01*
X+809234Y-1839681D01*
X+771000Y-1877915D01*
X+732766Y-1839681D01*
X+555234Y-1839681D01*
X+517000Y-1877915D01*
X+478766Y-1839681D01*
X+301234Y-1839681D01*
X+263000Y-1877915D01*
X+224766Y-1839681D01*
X+47234Y-1839681D01*
X+9000Y-1877915D01*
X-29234Y-1839681D01*
X-206766Y-1839681D01*
X-245000Y-1877915D01*
X-283234Y-1839681D01*
X-290157Y-1839681D01*
X+136399Y-1413125D01*
X+136399Y-1215899D01*
X+1215899Y-1215899D01*
X+1215899Y-784101D01*
X+136399Y-784101D01*
X+136399Y+1003675D01*
X+222325Y+1089601D01*
X+534101Y+1089601D01*
X+534101Y+772101D01*
X+965899Y+772101D01*
X+965899Y+1818577D01*
X+1097601Y+1686875D01*
G37*
G36*
X+534101Y+1788101D02*
X+534101Y+1648399D01*
X-132525Y+1648399D01*
X-422399Y+1358525D01*
X-422399Y-784101D01*
X-625601Y-784101D01*
X-625601Y+1772475D01*
X-546475Y+1851601D01*
X+534101Y+1851601D01*
X+534101Y+1788101D01*
G37*
G36*
X+3318577Y-1284101D02*
X+2522101Y-1284101D01*
X+2522101Y-1715899D01*
X+2839601Y-1715899D01*
X+2839601Y-2226375D01*
X+2468375Y-2597601D01*
X+1313125Y-2597601D01*
X+1063126Y-2347601D01*
X+703125Y-2347601D01*
X+623803Y-2268279D01*
X+732766Y-2268279D01*
X+771000Y-2230045D01*
X+809234Y-2268279D01*
X+986766Y-2268279D01*
X+1025000Y-2230045D01*
X+1063234Y-2268279D01*
X+1240766Y-2268279D01*
X+1279000Y-2230045D01*
X+1317234Y-2268279D01*
X+1494766Y-2268279D01*
X+1524056Y-2238989D01*
X+1845009Y-2238989D01*
X+1845009Y-1868971D01*
X+1812399Y-1868971D01*
X+1812399Y-1563125D01*
X+2223125Y-1152399D01*
X+3186875Y-1152399D01*
X+3318577Y-1284101D01*
G37*
%LPC*%
G36*
X+2345582Y-1831821D02*
X+2564418Y-1831821D01*
X+2719159Y-1986562D01*
X+2719159Y-2205398D01*
X+2564418Y-2360139D01*
X+2345582Y-2360139D01*
X+2190841Y-2205398D01*
X+2190841Y-1986562D01*
X+2345582Y-1831821D01*
G37*
%LPD*%
D21*
X+3556000Y-3010000D02*
X+3300000Y-3010000D01*
X+2860000Y-3450000D01*
X+1000000Y-3450000D01*
X+846990Y-3296990D01*
X+468299Y-3296990D01*
X-4409000Y-2655000D02*
X-3864000Y-3200000D01*
X-3035980Y-3200000D01*
X-2412000Y-3823980D01*
D22*
X+4626353Y-2869799D02*
X+4486152Y-3010000D01*
X+4318000Y-3010000D01*
X-2450000Y+0D02*
X-2500000Y+0D01*
X-2450000Y+0D02*
X-2151600Y+0D01*
X-2050000Y+0D01*
X-2705000Y-250000D02*
X-2655000Y-160247D01*
X-2500000Y+0D02*
X-2648400Y-148400D01*
X-2655000Y-160247D01*
X-3600000Y-2300000D02*
X-3800000Y-2300000D01*
X-2324907Y-940499D02*
X-2342099Y-1042099D01*
X-3200000Y-1900000D01*
X-3600000Y-2300000D01*
X-3600000Y-2608000D01*
X-3647000Y-2655000D01*
X-2357799Y-570343D02*
X-2357799Y-838899D01*
X-2324907Y-940499D01*
X-2705000Y-250000D02*
X-2603400Y-346600D01*
X-2446699Y-503301D01*
X-2357799Y-570343D01*
D21*
X-3291500Y+868000D02*
X-3291500Y+884157D01*
X-3275343Y+884157D01*
X+750000Y+2004000D02*
X-609600Y+2004000D01*
X-778000Y+1835600D01*
X-778000Y-1000000D01*
X+1660000Y-1500000D02*
X+1660000Y-2053980D01*
X+1660000Y-1500000D02*
X+1660000Y-660000D01*
X+1250000Y-250000D01*
X+1250000Y+1750000D01*
X+1660000Y-1500000D02*
X+2160000Y-1000000D01*
X+3250000Y-1000000D01*
X+3500000Y-1250000D01*
X+3500000Y-1500000D01*
X+750000Y+2004000D02*
X+851600Y+2000000D01*
X+1000000Y+2000000D01*
X+1250000Y+1750000D02*
X+1000000Y+2000000D01*
D22*
X-4308000Y-1447800D02*
X-4308000Y-2300000D01*
X-524000Y-1000000D02*
X-524000Y+1447800D01*
X-221800Y+1750000D01*
X+685500Y+1750000D01*
X-4409000Y-3528500D02*
X-4655000Y-3282500D01*
X-4655000Y-2909000D01*
X-2654740Y+1604260D02*
X-2659000Y+1600000D01*
X-2650000Y+1600000D02*
X-2654740Y+1604260D01*
X-4525000Y-1054500D02*
X-4525000Y-1206500D01*
X-4655000Y-2500000D02*
X-4655000Y-2909000D01*
X-4655000Y-2500000D02*
X-4655000Y-2000000D01*
X-3966250Y-4692750D02*
X-3500000Y-4692750D01*
X-2692750Y-4692750D01*
X+3750000Y-5000000D02*
X+3250000Y-5000000D01*
X+4504000Y-4000000D02*
X+4500000Y-4250000D01*
X+3750000Y-5000000D02*
X+4500000Y-4250000D01*
X+1500000Y-2500000D02*
X+1750000Y-2500000D01*
X+2000000Y-2250000D01*
X+2000000Y-1750000D01*
X+2250000Y-1500000D01*
X+2738000Y-1500000D01*
X+2750000Y-5000000D02*
X-2286000Y-5000000D01*
X+3250000Y-5000000D02*
X+3000000Y-5000000D01*
X-2692750Y-4692750D02*
X-2385500Y-5000000D01*
X-2286000Y-5000000D02*
X-2385500Y-5000000D01*
X-4525000Y-1206500D02*
X-4655000Y-1336500D01*
X-4655000Y-2000000D01*
X+1406000Y-2053980D02*
X+1406000Y-2406000D01*
X+1500000Y-2500000D02*
X+1406000Y-2406000D01*
X-4525000Y-1206500D02*
X-4525000Y-1270000D01*
X+750000Y+1750000D02*
X+685500Y+1750000D01*
X+1406000Y-2053980D02*
X+1406000Y-698500D01*
X+1016000Y-308500D01*
X+1016000Y+1750000D01*
X+750000Y+1750000D01*
D21*
X+1500000Y-2750000D02*
X+2531500Y-2750000D01*
X+2992000Y-2289500D01*
X+2992000Y-1500000D01*
X+640000Y-2500000D02*
X+1000000Y-2500000D01*
X+1500000Y-2750000D02*
X+1250000Y-2750000D01*
X+1000000Y-2500000D01*
X+390000Y-2250000D02*
X+390000Y-2053980D01*
X+640000Y-2500000D02*
X+390000Y-2250000D01*
X+3996000Y-4000000D02*
X+4000000Y-3898400D01*
X+4000000Y-3600000D01*
X+4272500Y-3327500D01*
X+4318000Y-3264000D01*
X+4318000Y-3263999D01*
X-1146000Y-2916490D02*
X-626000Y-2396490D01*
X-626000Y-2053980D01*
X-1146000Y-2916490D02*
X-1396000Y-3166490D01*
X-1396000Y-3823980D01*
X-16000Y-1000000D02*
X-16000Y+1066800D01*
X+159200Y+1242000D01*
X+750000Y+1242000D01*
X-16000Y-1000000D02*
X-16000Y-1350000D01*
X-366000Y-1700000D01*
X-750000Y-1700000D01*
X-880000Y-1830000D01*
X-880000Y-2053980D01*
X-270000Y-1000000D02*
X-270000Y+1295400D01*
X-69400Y+1496000D01*
X+750000Y+1496000D01*
X-270000Y-1000000D02*
X-270000Y-1300000D01*
X-470000Y-1500000D01*
X-1400000Y-1500000D01*
X-1650000Y-1750000D01*
X-1650000Y-1953980D01*
X-1642000Y-2053980D01*
X-3647000Y-2909000D02*
X-3647000Y-2908999D01*
D22*
X-4308000Y-1447800D02*
X-4485800Y-1270000D01*
X-4515050Y-1240750D01*
X-4525000Y-1270000D02*
X-4485800Y-1270000D01*
X+3560000Y-3688000D02*
X+3550000Y-3688000D01*
X-3213000Y-250000D02*
X-3314600Y-300000D01*
X-3500000Y-300000D01*
X-3750000Y-550000D01*
D21*
X-3800000Y-500000D02*
X-3750000Y-550000D01*
D22*
X-4296000Y+28860D02*
X-4176460Y-123540D01*
X-3800000Y-500000D01*
X-3600000Y-700000D02*
X-3311101Y-988899D01*
X-3222201Y-1073647D01*
X-3750000Y-550000D02*
X-3600000Y-700000D01*
X-3553600Y-700000D01*
X-3452000Y-680820D01*
X-3198000Y-680820D02*
X-2976276Y-680820D01*
X-2865799Y-570343D01*
D21*
X-372000Y-2053980D02*
X-372000Y-2400000D01*
X-822000Y-2850000D01*
X-822000Y-3150000D01*
X-675010Y-3296990D01*
X-547701Y-3296990D01*
D22*
X-4655000Y-2909000D02*
X-4450000Y-2909000D01*
X-4409000Y-2909000D01*
X-2650000Y+1600000D02*
X-2650456Y+1608544D01*
X-2650000Y+1609000D02*
X-2650456Y+1608544D01*
X-2654740Y+1604260D01*
X-2578907Y-940499D02*
X-2800000Y-719406D01*
X-2860163Y-659243D01*
X-2865799Y-570343D01*
X-2959000Y-250000D02*
X-2959000Y-477142D01*
X-2865799Y-570343D01*
X-4296000Y-825500D02*
X-3978348Y-825500D01*
X-3730201Y-1073647D01*
X-4296000Y-479140D02*
X-4296000Y-825500D01*
X-4525000Y-1054500D01*
X-3730201Y-1073647D02*
X-3453848Y-1350000D01*
X-3100000Y-1350000D01*
X-2950000Y-1200000D01*
X-2950000Y-950000D01*
X-3117580Y-782420D01*
X-3198000Y-680820D01*
D21*
X-3647000Y-2909000D02*
X-3583500Y-2908999D01*
X-3549999Y-2908999D01*
X-3550000Y-2909000D02*
X-3549999Y-2908999D01*
X-3600000Y-2909000D02*
X-3550000Y-2909000D01*
X-3647000Y-2909000D02*
X-3600000Y-2909000D01*
X-3550000Y-2909000D02*
X-2941000Y-2909000D01*
X-2150000Y-3700000D01*
X-2150000Y-4050000D01*
X-2350000Y-4250000D01*
X-3300000Y-4250000D01*
X-3442000Y-4108000D01*
X-3442000Y-4034101D01*
D22*
X-3950000Y-4034101D02*
X-4250000Y-3734101D01*
X-4409000Y-3575101D01*
X-4409000Y-3528500D02*
X-4409000Y-3575101D01*
X-4409000Y-4250000D01*
X-3966250Y-4692750D01*
X+4504000Y-4000000D02*
X+4504000Y-3500152D01*
X+4626353Y-3377799D01*
X+3608000Y+1250000D02*
X+3664500Y+1193500D01*
X+3664500Y+863500D01*
D21*
X+2902500Y+609500D02*
X+3100000Y+807000D01*
X+3100000Y+1250000D01*
X-3101000Y+2234000D02*
X-3101000Y+1800000D01*
X-3101000Y+1688900D01*
X-3158000Y+1600000D01*
X+3100000Y+1250000D02*
X+3100000Y+1650000D01*
X+2950000Y+1800000D01*
X+2950000Y+2200000D01*
D22*
X-4525000Y-1054500D02*
X-4750000Y-829500D01*
X-4750000Y-200000D01*
X-4650000Y-100000D01*
D21*
X+2696000Y+2200000D02*
X+2700000Y+2192208D01*
X+2700000Y+1442208D01*
X+2850000Y+1300000D01*
X+2902500Y+863500D01*
X+2433738Y+1603738D02*
X+2433738Y+2100000D01*
X+2533738Y+2200000D01*
X+2594400Y+2200000D01*
X+2696000Y+2200000D01*
D22*
X+3458000Y+2200000D02*
X+3458000Y+1603738D01*
X+3458000Y+1400000D01*
X+3608000Y+1250000D01*
D21*
X-3355000Y+2234000D02*
X-3505000Y+2234000D01*
X-3690000Y+2049000D01*
X-3690000Y+1574000D01*
D22*
X-4650000Y+300000D02*
X-4650000Y+250000D01*
X-4450000Y+450000D01*
X-3798000Y+450000D01*
X-3690000Y+558000D01*
X-4650000Y-100000D02*
X-4650000Y+250000D01*
X-4650000Y+300000D02*
X-4650000Y+1150000D01*
D21*
X-2705000Y-250000D02*
X-2705000Y+50000D01*
X-3291500Y+636500D01*
X-3291500Y+868000D01*
X-3690000Y+1574000D02*
X-3301500Y+1185500D01*
X-3291500Y+1122000D01*
X-3291500Y+868000D02*
X-3275343Y+884157D01*
X-3228000Y+931500D01*
X-3009500Y+1150000D01*
X-3009500Y+1451500D01*
X-3158000Y+1600000D01*
X-2529500Y+868000D02*
X-2529500Y+668000D01*
X-2399300Y+537800D01*
X-1601999Y+537800D01*
X-1601999Y-478200D02*
X-1601999Y-651999D01*
X-2537500Y-1587500D01*
X-2540000Y-1587500D01*
X-2750000Y-1797500D01*
X-2750000Y-2800000D01*
X-1950000Y-3600000D01*
X-1950000Y-4078500D01*
X-1750000Y-4254500D01*
X-753000Y-4254500D01*
X-626000Y-4381500D01*
X-626000Y-4593980D01*
X-2050000Y+0D02*
X-1600000Y+0D01*
X-1300000Y+300000D01*
X-1300000Y+2150000D01*
X-950000Y+2500000D01*
X+2800000Y+2500000D01*
X+2950000Y+2350000D01*
X+2950000Y+2200000D01*
X+3560000Y-4704000D02*
X+3997894Y-4266106D01*
X+3997894Y-4101600D01*
X+3996000Y-4000000D01*
D22*
X+3556000Y-3264000D02*
X+2950000Y-3870000D01*
X+2950000Y-5000000D01*
X+2750000Y-5000000D02*
X+2950000Y-5000000D01*
X+3000000Y-5000000D01*
D21*
X+1660000Y-4593980D02*
X+1660000Y-4328062D01*
X+1279220Y-3947282D01*
X-2050000Y-254000D02*
X-1500000Y-254000D01*
X-1304000Y-450000D01*
X-1304000Y-604000D01*
X-2550000Y-1850000D01*
X-2550000Y-2400000D01*
X-1650000Y-3300000D01*
X-1650000Y-4000000D01*
X-1550000Y-4100000D01*
X-800000Y-4100000D01*
X-661281Y-3961281D01*
X-470781Y-3947282D01*
X+136000Y-2053980D02*
X+136000Y-2500000D01*
X+386000Y-2750000D01*
X+1000000Y-2750000D01*
X+1200000Y-2950000D01*
X+2581500Y-2950000D01*
X+3246000Y-2285500D01*
X+3246000Y-1500000D01*
X+4204000Y-320000D02*
X+4204000Y-2100000D01*
X+3604000Y-2700000D01*
X+3200000Y-2700000D01*
X+2700000Y-3200000D01*
X+1100000Y-3200000D01*
X+850000Y-2950000D01*
X+200000Y-2950000D01*
X-50000Y-3200000D01*
X-50000Y-4200000D01*
X-350000Y-4400000D01*
X-372000Y-4593980D01*
D22*
X+3556000Y-3264000D02*
X+3686000Y-3264000D01*
X+4450000Y-2500000D01*
X+4450000Y-200000D01*
X+4200000Y+50000D01*
X+2200000Y+50000D01*
X+1550000Y+700000D01*
X+1550000Y+1950000D01*
X+1200000Y+2300000D01*
X-600000Y+2300000D01*
X-1050000Y+1850000D01*
X-1050000Y-1200000D01*
X-950000Y-1300000D01*
X-624000Y-1300000D01*
X-524000Y-1200000D01*
X-524000Y-1000000D01*
D21*
X+3664500Y+609500D02*
X+3950000Y+609500D01*
X+4117500Y+609500D01*
X+4204000Y+696000D01*
X-3647000Y-2909000D02*
X-3438900Y-2700900D01*
X-3376000Y-2612000D01*
D22*
X-3376000Y-3628000D02*
X-3464900Y-3600000D01*
X-4000000Y-3600000D01*
X-4409000Y-3191000D01*
X-4409000Y-2909000D01*
X-2529500Y+1122000D02*
X-2657500Y+1250000D01*
X-2657500Y+1450000D01*
X-2657500Y+1600000D01*
X-2600000Y+2750000D02*
X+3250000Y+2750000D01*
X+3458000Y+2542000D01*
X+3458000Y+2200000D01*
D21*
X+2902500Y+609500D02*
X+3200000Y+312000D01*
X+4350000Y+312000D01*
X+4750000Y-88000D01*
X+4750000Y-2746152D01*
X+4715253Y-2780899D01*
X+4626353Y-2869799D01*
D22*
X-2650000Y+1600000D02*
X-2650000Y+1609000D01*
X-2593000Y+1666000D01*
X-2593000Y+2234000D01*
X-4650000Y+1150000D02*
X-4650000Y+1700000D01*
X-3600000Y+2750000D01*
X-3050000Y+2750000D01*
X-2593000Y+2234000D02*
X-2593000Y+2493000D01*
X-2850000Y+2750000D01*
X-2900000Y+2750000D01*
X-3050000Y+2750000D01*
X-2850000Y+2750000D02*
X-2600000Y+2750000D01*
D21*
X+4407101Y+2642033D02*
X+4407101Y+2357967D01*
X+4607967Y+2157101D01*
X+4892033Y+2157101D01*
X+4998658Y+2263726D01*
X+4998658Y-4513726D01*
X+4892033Y-4407101D01*
X+4607967Y-4407101D01*
X+4407101Y-4607967D01*
X+4407101Y-4892033D01*
X+4547288Y-5032220D01*
X-4297288Y-5032220D01*
X-4157101Y-4892033D01*
X-4157101Y-4607967D01*
X-4357967Y-4407101D01*
X-4642033Y-4407101D01*
X-4828622Y-4593690D01*
X-4828622Y+2343690D01*
X-4642033Y+2157101D01*
X-4357967Y+2157101D01*
X-4157101Y+2357967D01*
X-4157101Y+2642033D01*
X-4310128Y+2795060D01*
X+4560128Y+2795060D01*
X+4407101Y+2642033D01*
X+2907762Y+2607762D02*
X+3099625Y+2415899D01*
X+3673899Y+2415899D01*
X+3673899Y+1984101D01*
X+3102399Y+1984101D01*
X+3102399Y+1863125D01*
X+3252399Y+1713125D01*
X+3252399Y+1693766D01*
X+3365570Y+1806937D01*
X+3533906Y+1806937D01*
X+3652937Y+1687906D01*
X+3652937Y+1519570D01*
X+3586566Y+1453199D01*
X+3692168Y+1453199D01*
X+3811199Y+1334168D01*
X+3811199Y+1165832D01*
X+3692168Y+1046801D01*
X+3523832Y+1046801D01*
X+3404801Y+1165832D01*
X+3404801Y+1334168D01*
X+3471172Y+1400539D01*
X+3365570Y+1400539D01*
X+3252399Y+1513710D01*
X+3252399Y+1384968D01*
X+3303199Y+1334168D01*
X+3303199Y+1165832D01*
X+3252399Y+1115032D01*
X+3252399Y+743875D01*
X+3118024Y+609500D01*
X+3263125Y+464399D01*
X+3486701Y+464399D01*
X+3486701Y+787299D01*
X+3489255Y+787299D01*
X+3486701Y+789853D01*
X+3486701Y+937147D01*
X+3590853Y+1041299D01*
X+3738147Y+1041299D01*
X+3842299Y+937147D01*
X+3842299Y+789853D01*
X+3839745Y+787299D01*
X+3842299Y+787299D01*
X+3842299Y+761899D01*
X+4000801Y+761899D01*
X+4000801Y+780168D01*
X+4119832Y+899199D01*
X+4288168Y+899199D01*
X+4407199Y+780168D01*
X+4407199Y+611832D01*
X+4288168Y+492801D01*
X+4216325Y+492801D01*
X+4187923Y+464399D01*
X+4413125Y+464399D01*
X+4902399Y-24875D01*
X+4902399Y-2809277D01*
X+4829552Y-2882124D01*
X+4829552Y-2953967D01*
X+4710521Y-3072998D01*
X+4656638Y-3072998D01*
X+4555036Y-3174600D01*
X+4710521Y-3174600D01*
X+4829552Y-3293631D01*
X+4829552Y-3461967D01*
X+4710521Y-3580998D01*
X+4542185Y-3580998D01*
X+4423154Y-3461967D01*
X+4423154Y-3410292D01*
X+4391647Y-3441799D01*
X+4373725Y-3441799D01*
X+4152399Y-3663125D01*
X+4152399Y-3784101D01*
X+4719899Y-3784101D01*
X+4719899Y-4215899D01*
X+4150293Y-4215899D01*
X+4150293Y-4329231D01*
X+3763199Y-4716325D01*
X+3763199Y-4788168D01*
X+3644168Y-4907199D01*
X+3475832Y-4907199D01*
X+3356801Y-4788168D01*
X+3356801Y-4619832D01*
X+3475832Y-4500801D01*
X+3547675Y-4500801D01*
X+3832577Y-4215899D01*
X+3780101Y-4215899D01*
X+3780101Y-3784101D01*
X+3847601Y-3784101D01*
X+3847601Y-3536875D01*
X+4140201Y-3244275D01*
X+4140201Y-3190353D01*
X+4193554Y-3137000D01*
X+4140201Y-3083647D01*
X+4140201Y-2936353D01*
X+4244353Y-2832201D01*
X+4391647Y-2832201D01*
X+4404347Y-2844901D01*
X+4417767Y-2844901D01*
X+4423154Y-2839514D01*
X+4423154Y-2785631D01*
X+4542185Y-2666600D01*
X+4597601Y-2666600D01*
X+4597601Y-151125D01*
X+4286875Y+159601D01*
X+3136875Y+159601D01*
X+2864775Y+431701D01*
X+2828853Y+431701D01*
X+2724701Y+535853D01*
X+2724701Y+683147D01*
X+2778054Y+736500D01*
X+2724701Y+789853D01*
X+2724701Y+937147D01*
X+2734454Y+946900D01*
X+2704437Y+1228001D01*
X+2572382Y+1353196D01*
X+2547601Y+1410839D01*
X+2547601Y+1430234D01*
X+2517906Y+1400539D01*
X+2349570Y+1400539D01*
X+2230539Y+1519570D01*
X+2230539Y+1687906D01*
X+2281339Y+1738706D01*
X+2281339Y+2163125D01*
X+2465815Y+2347601D01*
X-886875Y+2347601D01*
X-1147601Y+2086875D01*
X-1147601Y+236875D01*
X-1486077Y-101601D01*
X-1436875Y-101601D01*
X-1151601Y-386875D01*
X-1151601Y-667125D01*
X-2316297Y-1831821D01*
X-2129582Y-1831821D01*
X-2053244Y-1908159D01*
X-1984766Y-1839681D01*
X-1807234Y-1839681D01*
X-1802399Y-1844516D01*
X-1802399Y-1686875D01*
X-1463125Y-1347601D01*
X-533125Y-1347601D01*
X-422399Y-1236875D01*
X-422399Y-1215899D01*
X-993899Y-1215899D01*
X-993899Y-784101D01*
X-930399Y-784101D01*
X-930399Y+1898725D01*
X-672725Y+2156399D01*
X+534101Y+2156399D01*
X+534101Y+2219899D01*
X+965899Y+2219899D01*
X+965899Y+2152399D01*
X+1063126Y+2152399D01*
X+1152399Y+2063125D01*
X+1402399Y+1813126D01*
X+1402399Y-186875D01*
X+1812399Y-596875D01*
X+1812399Y-1132077D01*
X+2096875Y-847601D01*
X+3313125Y-847601D01*
X+3652399Y-1186875D01*
X+3652399Y-1284101D01*
X+3715899Y-1284101D01*
X+3715899Y-1715899D01*
X+3398399Y-1715899D01*
X+3398399Y-2348625D01*
X+3199423Y-2547601D01*
X+3540875Y-2547601D01*
X+4051601Y-2036875D01*
X+4051601Y-454968D01*
X+4000801Y-404168D01*
X+4000801Y-235832D01*
X+4119832Y-116801D01*
X+4288168Y-116801D01*
X+4407199Y-235832D01*
X+4407199Y-404168D01*
X+4356399Y-454968D01*
X+4356399Y-2163125D01*
X+3687323Y-2832201D01*
X+3733799Y-2832201D01*
X+3733799Y-3187799D01*
X+3731245Y-3187799D01*
X+3733799Y-3190353D01*
X+3733799Y-3337647D01*
X+3629647Y-3441799D01*
X+3482353Y-3441799D01*
X+3378201Y-3337647D01*
X+3378201Y-3190353D01*
X+3380755Y-3187799D01*
X+3378201Y-3187799D01*
X+3378201Y-3162399D01*
X+3363125Y-3162399D01*
X+2923125Y-3602399D01*
X+936875Y-3602399D01*
X+783865Y-3449389D01*
X+603267Y-3449389D01*
X+552467Y-3500189D01*
X+384131Y-3500189D01*
X+265100Y-3381158D01*
X+265100Y-3212822D01*
X+375523Y-3102399D01*
X+263125Y-3102399D01*
X+102399Y-3263125D01*
X+102399Y-4238215D01*
X+66333Y-4305604D01*
X-44782Y-4379681D01*
X-29234Y-4379681D01*
X+9000Y-4417915D01*
X+47234Y-4379681D01*
X+224766Y-4379681D01*
X+263000Y-4417915D01*
X+301234Y-4379681D01*
X+478766Y-4379681D01*
X+517000Y-4417915D01*
X+555234Y-4379681D01*
X+732766Y-4379681D01*
X+771000Y-4417915D01*
X+809234Y-4379681D01*
X+986766Y-4379681D01*
X+1025000Y-4417915D01*
X+1063234Y-4379681D01*
X+1240766Y-4379681D01*
X+1279000Y-4417915D01*
X+1317234Y-4379681D01*
X+1494766Y-4379681D01*
X+1507601Y-4392516D01*
X+1507601Y-4391187D01*
X+1368495Y-4252081D01*
X+1152968Y-4252081D01*
X+974421Y-4073534D01*
X+974421Y-3821030D01*
X+1152968Y-3642483D01*
X+1405472Y-3642483D01*
X+1584019Y-3821030D01*
X+1584019Y-4036557D01*
X+1812399Y-4264937D01*
X+1812399Y-4443314D01*
X+1874299Y-4505214D01*
X+1874299Y-4682746D01*
X+1748766Y-4808279D01*
X+1571234Y-4808279D01*
X+1533000Y-4770045D01*
X+1494766Y-4808279D01*
X+1317234Y-4808279D01*
X+1279000Y-4770045D01*
X+1240766Y-4808279D01*
X+1063234Y-4808279D01*
X+1025000Y-4770045D01*
X+986766Y-4808279D01*
X+809234Y-4808279D01*
X+771000Y-4770045D01*
X+732766Y-4808279D01*
X+555234Y-4808279D01*
X+517000Y-4770045D01*
X+478766Y-4808279D01*
X+301234Y-4808279D01*
X+263000Y-4770045D01*
X+224766Y-4808279D01*
X+47234Y-4808279D01*
X+9000Y-4770045D01*
X-29234Y-4808279D01*
X-206766Y-4808279D01*
X-245000Y-4770045D01*
X-283234Y-4808279D01*
X-460766Y-4808279D01*
X-499000Y-4770045D01*
X-537234Y-4808279D01*
X-714766Y-4808279D01*
X-753000Y-4770045D01*
X-791234Y-4808279D01*
X-968766Y-4808279D01*
X-1007000Y-4770045D01*
X-1045234Y-4808279D01*
X-1222766Y-4808279D01*
X-1261000Y-4770045D01*
X-1299234Y-4808279D01*
X-1476766Y-4808279D01*
X-1515000Y-4770045D01*
X-1553234Y-4808279D01*
X-1730766Y-4808279D01*
X-1769000Y-4770045D01*
X-1807234Y-4808279D01*
X-1984766Y-4808279D01*
X-2055739Y-4737306D01*
X-2129582Y-4811149D01*
X-2348418Y-4811149D01*
X-2503159Y-4656408D01*
X-2503159Y-4437572D01*
X-2467986Y-4402399D01*
X-3363125Y-4402399D01*
X-3515524Y-4250000D01*
X-4165899Y-4250000D01*
X-4165899Y-3818202D01*
X-3473165Y-3818202D01*
X-3579199Y-3712168D01*
X-3579199Y-3543832D01*
X-3460168Y-3424801D01*
X-3291832Y-3424801D01*
X-3172801Y-3543832D01*
X-3172801Y-3712168D01*
X-3278835Y-3818202D01*
X-3226101Y-3818202D01*
X-3226101Y-4097601D01*
X-2413125Y-4097601D01*
X-2342703Y-4027179D01*
X-2496168Y-4027179D01*
X-2615199Y-3908148D01*
X-2615199Y-3836305D01*
X-3099105Y-3352399D01*
X-3927125Y-3352399D01*
X-4264039Y-3015485D01*
X-4335353Y-3086799D01*
X-4482647Y-3086799D01*
X-4586799Y-2982647D01*
X-4586799Y-2835353D01*
X-4584245Y-2832799D01*
X-4586799Y-2832799D01*
X-4586799Y-2477201D01*
X-4418166Y-2477201D01*
X-4511199Y-2384168D01*
X-4511199Y-2215832D01*
X-4392168Y-2096801D01*
X-4223832Y-2096801D01*
X-4104801Y-2215832D01*
X-4104801Y-2384168D01*
X-4223832Y-2503199D01*
X-4231201Y-2503199D01*
X-4231201Y-2617275D01*
X-3800875Y-3047601D01*
X-3759845Y-3047601D01*
X-3824799Y-2982647D01*
X-3824799Y-2835353D01*
X-3771446Y-2782000D01*
X-3824799Y-2728647D01*
X-3824799Y-2581353D01*
X-3765099Y-2521653D01*
X-3765099Y-2503199D01*
X-3884168Y-2503199D01*
X-4003199Y-2384168D01*
X-4003199Y-2215832D01*
X-3884168Y-2096801D01*
X-3715832Y-2096801D01*
X-3677732Y-2134901D01*
X-3668385Y-2134901D01*
X-2679108Y-1145624D01*
X-2794806Y-1029927D01*
X-2794806Y-851071D01*
X-2668335Y-724600D01*
X-2522898Y-724600D01*
X-2522898Y-692611D01*
X-2560998Y-654511D01*
X-2560998Y-622486D01*
X-2662600Y-520884D01*
X-2662600Y-654511D01*
X-2781631Y-773542D01*
X-2949967Y-773542D01*
X-2982101Y-741408D01*
X-2982101Y-770248D01*
X-3108572Y-896719D01*
X-3111762Y-896719D01*
X-3019002Y-989479D01*
X-3019002Y-1157815D01*
X-3138033Y-1276846D01*
X-3306369Y-1276846D01*
X-3425400Y-1157815D01*
X-3425400Y-1108052D01*
X-3426462Y-1107022D01*
X-3527002Y-1006482D01*
X-3527002Y-1157815D01*
X-3646033Y-1276846D01*
X-3814369Y-1276846D01*
X-3933400Y-1157815D01*
X-3933400Y-989479D01*
X-3814369Y-870448D01*
X-3663036Y-870448D01*
X-3668386Y-865099D01*
X-4029301Y-504183D01*
X-4029301Y-589610D01*
X-4185530Y-745839D01*
X-4406470Y-745839D01*
X-4562699Y-589610D01*
X-4562699Y-368670D01*
X-4419169Y-225140D01*
X-4562699Y-81610D01*
X-4562699Y+139330D01*
X-4406470Y+295559D01*
X-4185530Y+295559D01*
X-4029301Y+139330D01*
X-4029301Y-37215D01*
X-3750000Y-316516D01*
X-3568385Y-134901D01*
X-3428899Y-134901D01*
X-3428899Y-34101D01*
X-2857399Y-34101D01*
X-2857399Y-13125D01*
X-3443899Y+573375D01*
X-3443899Y+768953D01*
X-3469299Y+794353D01*
X-3469299Y+941647D01*
X-3415946Y+995000D01*
X-3469299Y+1048353D01*
X-3469299Y+1137775D01*
X-3702325Y+1370801D01*
X-3774168Y+1370801D01*
X-3893199Y+1489832D01*
X-3893199Y+1658168D01*
X-3842399Y+1708968D01*
X-3842399Y+2112125D01*
X-3570899Y+2383625D01*
X-3570899Y+2449899D01*
X-2377101Y+2449899D01*
X-2377101Y+2018101D01*
X-2948601Y+2018101D01*
X-2948601Y+1644240D01*
X-2954801Y+1632562D01*
X-2954801Y+1612325D01*
X-2857101Y+1514625D01*
X-2857101Y+1086875D01*
X-3113701Y+830275D01*
X-3113701Y+794353D01*
X-3139101Y+768953D01*
X-3139101Y+699625D01*
X-2586480Y+147004D01*
X-2568386Y+165099D01*
X-2265899Y+165099D01*
X-2265899Y+385401D01*
X-2462425Y+385401D01*
X-2681899Y+604875D01*
X-2681899Y+690201D01*
X-2707299Y+690201D01*
X-2707299Y+1045799D01*
X-2704745Y+1045799D01*
X-2707299Y+1048353D01*
X-2707299Y+1195647D01*
X-2603147Y+1299799D01*
X-2455853Y+1299799D01*
X-2351701Y+1195647D01*
X-2351701Y+1048353D01*
X-2354255Y+1045799D01*
X-2351701Y+1045799D01*
X-2351701Y+705725D01*
X-2336175Y+690199D01*
X-1736967Y+690199D01*
X-1686167Y+740999D01*
X-1517831Y+740999D01*
X-1452399Y+675567D01*
X-1452399Y+2213125D01*
X-1013125Y+2652399D01*
X+2863125Y+2652399D01*
X+2907762Y+2607762D01*
X+2345582Y-4282831D02*
X+2564418Y-4282831D01*
X+2719159Y-4437572D01*
X+2719159Y-4656408D01*
X+2564418Y-4811149D01*
X+2345582Y-4811149D01*
X+2190841Y-4656408D01*
X+2190841Y-4437572D01*
X+2345582Y-4282831D01*
X+3644168Y-3891199D02*
X+3475832Y-3891199D01*
X+3356801Y-3772168D01*
X+3356801Y-3603832D01*
X+3475832Y-3484801D01*
X+3644168Y-3484801D01*
X+3763199Y-3603832D01*
X+3763199Y-3772168D01*
X+3644168Y-3891199D01*
X-2446801Y+1684168D02*
X-2446801Y+1515832D01*
X-2565832Y+1396801D01*
X-2734168Y+1396801D01*
X-2853199Y+1515832D01*
X-2853199Y+1684168D01*
X-2734168Y+1803199D01*
X-2565832Y+1803199D01*
X-2446801Y+1684168D01*
X-3774168Y+761199D02*
X-3605832Y+761199D01*
X-3486801Y+642168D01*
X-3486801Y+473832D01*
X-3605832Y+354801D01*
X-3774168Y+354801D01*
X-3893199Y+473832D01*
X-3893199Y+642168D01*
X-3774168Y+761199D01*
X+1097601Y+1686875D02*
X+1097601Y-313125D01*
X+1507601Y-723125D01*
X+1507601Y-1852516D01*
X+1494766Y-1839681D01*
X+1317234Y-1839681D01*
X+1279000Y-1877915D01*
X+1240766Y-1839681D01*
X+1063234Y-1839681D01*
X+1025000Y-1877915D01*
X+986766Y-1839681D01*
X+809234Y-1839681D01*
X+771000Y-1877915D01*
X+732766Y-1839681D01*
X+555234Y-1839681D01*
X+517000Y-1877915D01*
X+478766Y-1839681D01*
X+301234Y-1839681D01*
X+263000Y-1877915D01*
X+224766Y-1839681D01*
X+47234Y-1839681D01*
X+9000Y-1877915D01*
X-29234Y-1839681D01*
X-206766Y-1839681D01*
X-245000Y-1877915D01*
X-283234Y-1839681D01*
X-290157Y-1839681D01*
X+136399Y-1413125D01*
X+136399Y-1215899D01*
X+1215899Y-1215899D01*
X+1215899Y-784101D01*
X+136399Y-784101D01*
X+136399Y+1003675D01*
X+222325Y+1089601D01*
X+534101Y+1089601D01*
X+534101Y+772101D01*
X+965899Y+772101D01*
X+965899Y+1818577D01*
X+1097601Y+1686875D01*
X+534101Y+1788101D02*
X+534101Y+1648399D01*
X-132525Y+1648399D01*
X-422399Y+1358525D01*
X-422399Y-784101D01*
X-625601Y-784101D01*
X-625601Y+1772475D01*
X-546475Y+1851601D01*
X+534101Y+1851601D01*
X+534101Y+1788101D01*
X+3318577Y-1284101D02*
X+2522101Y-1284101D01*
X+2522101Y-1715899D01*
X+2839601Y-1715899D01*
X+2839601Y-2226375D01*
X+2468375Y-2597601D01*
X+1313125Y-2597601D01*
X+1063126Y-2347601D01*
X+703125Y-2347601D01*
X+623803Y-2268279D01*
X+732766Y-2268279D01*
X+771000Y-2230045D01*
X+809234Y-2268279D01*
X+986766Y-2268279D01*
X+1025000Y-2230045D01*
X+1063234Y-2268279D01*
X+1240766Y-2268279D01*
X+1279000Y-2230045D01*
X+1317234Y-2268279D01*
X+1494766Y-2268279D01*
X+1524056Y-2238989D01*
X+1845009Y-2238989D01*
X+1845009Y-1868971D01*
X+1812399Y-1868971D01*
X+1812399Y-1563125D01*
X+2223125Y-1152399D01*
X+3186875Y-1152399D01*
X+3318577Y-1284101D01*
X+2345582Y-1831821D02*
X+2564418Y-1831821D01*
X+2719159Y-1986562D01*
X+2719159Y-2205398D01*
X+2564418Y-2360139D01*
X+2345582Y-2360139D01*
X+2190841Y-2205398D01*
X+2190841Y-1986562D01*
X+2345582Y-1831821D01*
D23*
X+1406000Y-1839681D02*
X+1406000Y-2053980D01*
X+1406000Y-2268279D02*
X+1406000Y-2053980D01*
X-524000Y-1215899D02*
X-524000Y-1000000D01*
X-524000Y-784101D02*
X-524000Y-1000000D01*
X+534101Y+1750000D02*
X+750000Y+1750000D01*
X+965899Y+1750000D02*
X+750000Y+1750000D01*
X-4296000Y-745839D02*
X-4296000Y-479140D01*
X-4562699Y-479140D02*
X-4296000Y-479140D01*
X+2522101Y-1500000D02*
X+2738000Y-1500000D01*
X+2738000Y-1284101D02*
X+2738000Y-1500000D01*
X+2738000Y-1715899D02*
X+2738000Y-1500000D01*
X+4719899Y-4000000D02*
X+4504000Y-4000000D01*
X+4504000Y-4215899D02*
X+4504000Y-4000000D01*
X+4504000Y-3784101D02*
X+4504000Y-4000000D01*
X-4165899Y-4034101D02*
X-3950000Y-4034101D01*
X-3950000Y-3818202D02*
X-3950000Y-4034101D01*
X-3950000Y-4250000D02*
X-3950000Y-4034101D01*
X-2959000Y-34101D02*
X-2959000Y-250000D01*
X-2794806Y-940499D02*
X-2578907Y-940499D01*
X-2578907Y-724600D02*
X-2578907Y-940499D01*
X-3527002Y-1073647D02*
X-3730201Y-1073647D01*
X-3933400Y-1073647D02*
X-3730201Y-1073647D01*
X-3730201Y-870448D02*
X-3730201Y-1073647D01*
X-3730201Y-1276846D02*
X-3730201Y-1073647D01*
X-2662600Y-570343D02*
X-2865799Y-570343D01*
X-2865799Y-773542D02*
X-2865799Y-570343D01*
X+3560000Y-3891199D02*
X+3560000Y-3688000D01*
X+3560000Y-3484801D02*
X+3560000Y-3688000D01*
X+3763199Y-3688000D02*
X+3560000Y-3688000D01*
X+3356801Y-3688000D02*
X+3560000Y-3688000D01*
X+4626353Y-3580998D02*
X+4626353Y-3377799D01*
X+4626353Y-3174600D02*
X+4626353Y-3377799D01*
X+4829552Y-3377799D02*
X+4626353Y-3377799D01*
X+3556000Y-3441799D02*
X+3556000Y-3264000D01*
X+3378201Y-3264000D02*
X+3556000Y-3264000D01*
X+3733799Y-3264000D02*
X+3556000Y-3264000D01*
X-4511199Y-2300000D02*
X-4308000Y-2300000D01*
X-4104801Y-2300000D02*
X-4308000Y-2300000D01*
X-4308000Y-2096801D02*
X-4308000Y-2300000D01*
X-4409000Y-3086799D02*
X-4409000Y-2909000D01*
X-4586799Y-2909000D02*
X-4409000Y-2909000D01*
X-3376000Y-3424801D02*
X-3376000Y-3628000D01*
X-3579199Y-3628000D02*
X-3376000Y-3628000D01*
X-3172801Y-3628000D02*
X-3376000Y-3628000D01*
X+3652937Y+1603738D02*
X+3449738Y+1603738D01*
X+3449738Y+1400539D02*
X+3449738Y+1603738D01*
X+3449738Y+1806937D02*
X+3449738Y+1603738D01*
X-2446801Y+1600000D02*
X-2650000Y+1600000D01*
X-2853199Y+1600000D02*
X-2650000Y+1600000D01*
X-2650000Y+1803199D02*
X-2650000Y+1600000D01*
X-2650000Y+1396801D02*
X-2650000Y+1600000D01*
X-2529500Y+1299799D02*
X-2529500Y+1122000D01*
X-2351701Y+1122000D02*
X-2529500Y+1122000D01*
X-2707299Y+1122000D02*
X-2529500Y+1122000D01*
X-3690000Y+761199D02*
X-3690000Y+558000D01*
X-3690000Y+354801D02*
X-3690000Y+558000D01*
X-3893199Y+558000D02*
X-3690000Y+558000D01*
X-3486801Y+558000D02*
X-3690000Y+558000D01*
X+3811199Y+1250000D02*
X+3608000Y+1250000D01*
X+3404801Y+1250000D02*
X+3608000Y+1250000D01*
X+3608000Y+1453199D02*
X+3608000Y+1250000D01*
X+3608000Y+1046801D02*
X+3608000Y+1250000D01*
X+3664500Y+1041299D02*
X+3664500Y+863500D01*
X+3842299Y+863500D02*
X+3664500Y+863500D01*
X+3486701Y+863500D02*
X+3664500Y+863500D01*
X-2377101Y+2234000D02*
X-2593000Y+2234000D01*
X-2593000Y+2018101D02*
X-2593000Y+2234000D01*
X-2593000Y+2449899D02*
X-2593000Y+2234000D01*
X+3673899Y+2200000D02*
X+3458000Y+2200000D01*
X+3458000Y+1984101D02*
X+3458000Y+2200000D01*
X+3458000Y+2415899D02*
X+3458000Y+2200000D01*
D10*
X-4500000Y-4750000D03*
X+4750000Y-4750000D03*
X+4750000Y+2500000D03*
X-4500000Y+2500000D03*
D11*
X+11050000Y+130000D03*
D12*
X+1660000Y-2053980D03*
D13*
X+1406000Y-2053980D03*
X+1152000Y-2053980D03*
X+898000Y-2053980D03*
X+644000Y-2053980D03*
X+390000Y-2053980D03*
X+136000Y-2053980D03*
X-118000Y-2053980D03*
X-372000Y-2053980D03*
X-626000Y-2053980D03*
X-880000Y-2053980D03*
X-1134000Y-2053980D03*
X-1388000Y-2053980D03*
X-1642000Y-2053980D03*
X-1896000Y-2053980D03*
X-1896000Y-4593980D03*
X-1642000Y-4593980D03*
X-1388000Y-4593980D03*
X-1134000Y-4593980D03*
X-880000Y-4593980D03*
X-626000Y-4593980D03*
X-372000Y-4593980D03*
X-118000Y-4593980D03*
X+136000Y-4593980D03*
X+390000Y-4593980D03*
X+644000Y-4593980D03*
X+898000Y-4593980D03*
X+1152000Y-4593980D03*
X+1406000Y-4593980D03*
X+1660000Y-4593980D03*
D14*
X-2239000Y-2095980D03*
X-2239000Y-4546990D03*
X+2455000Y-4546990D03*
X+2455000Y-2095980D03*
D15*
X-778000Y-1000000D03*
X-524000Y-1000000D03*
X-270000Y-1000000D03*
X-16000Y-1000000D03*
X+238000Y-1000000D03*
X+492000Y-1000000D03*
X+746000Y-1000000D03*
X+1000000Y-1000000D03*
X+750000Y+2004000D03*
X+750000Y+1750000D03*
X+750000Y+1496000D03*
X+750000Y+1242000D03*
X+750000Y+988000D03*
D16*
X-4296000Y+28860D03*
X-4296000Y-479140D03*
D15*
X+3500000Y-1500000D03*
X+3246000Y-1500000D03*
X+2992000Y-1500000D03*
X+2738000Y-1500000D03*
X+3996000Y-4000000D03*
X+4250000Y-4000000D03*
X+4504000Y-4000000D03*
X-3442000Y-4034101D03*
X-3696000Y-4034101D03*
X-3950000Y-4034101D03*
X-3213000Y-250000D03*
X-2959000Y-250000D03*
X-2705000Y-250000D03*
D17*
X-3452000Y-680820D03*
X-3198000Y-680820D03*
X-2324907Y-940499D03*
X-2578907Y-940499D03*
D18*
X-3222201Y-1073647D03*
X-3730201Y-1073647D03*
X-2357799Y-570343D03*
X-2865799Y-570343D03*
D15*
X-2050000Y-254000D03*
X-2050000Y+0D03*
X-2050000Y+254000D03*
D19*
X-470781Y-3947282D03*
X+1279220Y-3947282D03*
D18*
X+3560000Y-4704000D03*
X+3560000Y-3688000D03*
X+4626353Y-3377799D03*
X+4626353Y-2869799D03*
D70*
X+3556000Y-3010000D03*
D71*
X+3556000Y-3264000D03*
X+4318000Y-3264000D03*
X+4318000Y-3010000D03*
D18*
X-547701Y-3296990D03*
X+468299Y-3296990D03*
X-4308000Y-2300000D03*
X-3800000Y-2300000D03*
D70*
X-4409000Y-2655000D03*
D71*
X-4409000Y-2909000D03*
X-3647000Y-2909000D03*
X-3647000Y-2655000D03*
D18*
X-1396000Y-3823980D03*
X-2412000Y-3823980D03*
X-3376000Y-2612000D03*
X-3376000Y-3628000D03*
X+4204000Y-320000D03*
X+4204000Y+696000D03*
X+2433738Y+1603738D03*
X+3449738Y+1603738D03*
X-2650000Y+1600000D03*
X-3158000Y+1600000D03*
D70*
X-2529500Y+868000D03*
D71*
X-2529500Y+1122000D03*
X-3291500Y+1122000D03*
X-3291500Y+868000D03*
D18*
X-1601999Y-478200D03*
X-1601999Y+537800D03*
X-3690000Y+1574000D03*
X-3690000Y+558000D03*
X+3608000Y+1250000D03*
X+3100000Y+1250000D03*
D70*
X+3664500Y+609500D03*
D71*
X+3664500Y+863500D03*
X+2902500Y+863500D03*
X+2902500Y+609500D03*
D15*
X-3355000Y+2234000D03*
X-3101000Y+2234000D03*
X-2847000Y+2234000D03*
X-2593000Y+2234000D03*
X+2696000Y+2200000D03*
X+2950000Y+2200000D03*
X+3204000Y+2200000D03*
X+3458000Y+2200000D03*
D20*
X-4914982Y-5118580D02*
X+5085018Y-5118580D01*
X+5085018Y+2881420D01*
X-4914982Y+2881420D01*
X-4914982Y-5118580D01*
M02*
