G04 PROTEUS GERBER X2 FILE*
%TF.GenerationSoftware,Labcenter,Proteus,8.13-SP0-Build31525*%
%TF.CreationDate,2026-05-22T19:34:29+00:00*%
%TF.FileFunction,Soldermask,Bot*%
%TF.FilePolarity,Negative*%
%TF.Part,Single*%
%TF.SameCoordinates,{f0e7e01f-7bb1-4ff0-ab76-a4da33298f90}*%
%FSLAX45Y45*%
%MOMM*%
G01*
%TA.AperFunction,Material*%
%ADD29C,5.080000*%
%ADD72C,0.025400*%
%AMPPAD023*
4,1,36,
0.757100,0.707100,
0.757100,-0.707100,
0.756100,-0.717320,
0.753240,-0.726780,
0.748690,-0.735280,
0.742640,-0.742640,
0.735280,-0.748690,
0.726780,-0.753240,
0.717320,-0.756100,
0.707100,-0.757100,
-0.707100,-0.757100,
-0.717320,-0.756100,
-0.726780,-0.753240,
-0.735280,-0.748690,
-0.742640,-0.742640,
-0.748690,-0.735280,
-0.753240,-0.726780,
-0.756100,-0.717320,
-0.757100,-0.707100,
-0.757100,0.707100,
-0.756100,0.717320,
-0.753240,0.726780,
-0.748690,0.735280,
-0.742640,0.742640,
-0.735280,0.748690,
-0.726780,0.753240,
-0.717320,0.756100,
-0.707100,0.757100,
0.707100,0.757100,
0.717320,0.756100,
0.726780,0.753240,
0.735280,0.748690,
0.742640,0.742640,
0.748690,0.735280,
0.753240,0.726780,
0.756100,0.717320,
0.757100,0.707100,
0*%
%TA.AperFunction,Material*%
%ADD73PPAD023*%
%ADD30C,2.100000*%
%ADD31C,2.997200*%
%AMPPAD026*
4,1,36,
-1.016000,1.143000,
1.016000,1.143000,
1.041970,1.140470,
1.065980,1.133200,
1.087580,1.121650,
1.106290,1.106290,
1.121650,1.087570,
1.133200,1.065980,
1.140470,1.041970,
1.143000,1.016000,
1.143000,-1.016000,
1.140470,-1.041970,
1.133200,-1.065980,
1.121650,-1.087570,
1.106290,-1.106290,
1.087580,-1.121650,
1.065980,-1.133200,
1.041970,-1.140470,
1.016000,-1.143000,
-1.016000,-1.143000,
-1.041970,-1.140470,
-1.065980,-1.133200,
-1.087580,-1.121650,
-1.106290,-1.106290,
-1.121650,-1.087570,
-1.133200,-1.065980,
-1.140470,-1.041970,
-1.143000,-1.016000,
-1.143000,1.016000,
-1.140470,1.041970,
-1.133200,1.065980,
-1.121650,1.087570,
-1.106290,1.106290,
-1.087580,1.121650,
-1.065980,1.133200,
-1.041970,1.140470,
-1.016000,1.143000,
0*%
%TA.AperFunction,Material*%
%ADD32PPAD026*%
%AMPPAD027*
4,1,36,
1.143000,1.016000,
1.143000,-1.016000,
1.140470,-1.041970,
1.133200,-1.065980,
1.121650,-1.087580,
1.106290,-1.106290,
1.087570,-1.121650,
1.065980,-1.133200,
1.041970,-1.140470,
1.016000,-1.143000,
-1.016000,-1.143000,
-1.041970,-1.140470,
-1.065980,-1.133200,
-1.087570,-1.121650,
-1.106290,-1.106290,
-1.121650,-1.087580,
-1.133200,-1.065980,
-1.140470,-1.041970,
-1.143000,-1.016000,
-1.143000,1.016000,
-1.140470,1.041970,
-1.133200,1.065980,
-1.121650,1.087580,
-1.106290,1.106290,
-1.087570,1.121650,
-1.065980,1.133200,
-1.041970,1.140470,
-1.016000,1.143000,
1.016000,1.143000,
1.041970,1.140470,
1.065980,1.133200,
1.087570,1.121650,
1.106290,1.106290,
1.121650,1.087580,
1.133200,1.065980,
1.140470,1.041970,
1.143000,1.016000,
0*%
%TA.AperFunction,Material*%
%ADD33PPAD027*%
%TA.AperFunction,Material*%
%ADD34C,3.302000*%
%ADD35C,2.286000*%
%ADD36C,2.032000*%
%ADD37C,4.064000*%
%AMPPAD032*
4,1,36,
0.762000,0.635000,
0.762000,-0.635000,
0.759470,-0.660970,
0.752200,-0.684980,
0.740650,-0.706580,
0.725290,-0.725290,
0.706570,-0.740650,
0.684980,-0.752200,
0.660970,-0.759470,
0.635000,-0.762000,
-0.635000,-0.762000,
-0.660970,-0.759470,
-0.684980,-0.752200,
-0.706570,-0.740650,
-0.725290,-0.725290,
-0.740650,-0.706580,
-0.752200,-0.684980,
-0.759470,-0.660970,
-0.762000,-0.635000,
-0.762000,0.635000,
-0.759470,0.660970,
-0.752200,0.684980,
-0.740650,0.706580,
-0.725290,0.725290,
-0.706570,0.740650,
-0.684980,0.752200,
-0.660970,0.759470,
-0.635000,0.762000,
0.635000,0.762000,
0.660970,0.759470,
0.684980,0.752200,
0.706570,0.740650,
0.725290,0.725290,
0.740650,0.706580,
0.752200,0.684980,
0.759470,0.660970,
0.762000,0.635000,
0*%
%TA.AperFunction,Material*%
%ADD38PPAD032*%
%ADD39C,1.524000*%
%TA.AperFunction,Profile*%
%ADD20C,0.203200*%
%TD.AperFunction*%
D29*
X-4500000Y-4750000D03*
X+4750000Y-4750000D03*
X+4750000Y+2500000D03*
X-4500000Y+2500000D03*
D72*
X+11050000Y+130000D03*
D73*
X+1660000Y-2053980D03*
D30*
X+1406000Y-2053980D03*
X+1152000Y-2053980D03*
X+898000Y-2053980D03*
X+644000Y-2053980D03*
X+390000Y-2053980D03*
X+136000Y-2053980D03*
X-118000Y-2053980D03*
X-372000Y-2053980D03*
X-626000Y-2053980D03*
X-880000Y-2053980D03*
X-1134000Y-2053980D03*
X-1388000Y-2053980D03*
X-1642000Y-2053980D03*
X-1896000Y-2053980D03*
X-1896000Y-4593980D03*
X-1642000Y-4593980D03*
X-1388000Y-4593980D03*
X-1134000Y-4593980D03*
X-880000Y-4593980D03*
X-626000Y-4593980D03*
X-372000Y-4593980D03*
X-118000Y-4593980D03*
X+136000Y-4593980D03*
X+390000Y-4593980D03*
X+644000Y-4593980D03*
X+898000Y-4593980D03*
X+1152000Y-4593980D03*
X+1406000Y-4593980D03*
X+1660000Y-4593980D03*
D31*
X-2239000Y-2095980D03*
X-2239000Y-4546990D03*
X+2455000Y-4546990D03*
X+2455000Y-2095980D03*
D32*
X-778000Y-1000000D03*
X-524000Y-1000000D03*
X-270000Y-1000000D03*
X-16000Y-1000000D03*
X+238000Y-1000000D03*
X+492000Y-1000000D03*
X+746000Y-1000000D03*
X+1000000Y-1000000D03*
D33*
X+750000Y+2004000D03*
X+750000Y+1750000D03*
X+750000Y+1496000D03*
X+750000Y+1242000D03*
X+750000Y+988000D03*
D34*
X-4296000Y+28860D03*
X-4296000Y-479140D03*
D32*
X+3500000Y-1500000D03*
X+3246000Y-1500000D03*
X+2992000Y-1500000D03*
X+2738000Y-1500000D03*
X+3996000Y-4000000D03*
X+4250000Y-4000000D03*
X+4504000Y-4000000D03*
X-3442000Y-4034101D03*
X-3696000Y-4034101D03*
X-3950000Y-4034101D03*
X-3213000Y-250000D03*
X-2959000Y-250000D03*
X-2705000Y-250000D03*
D35*
X-3452000Y-680820D03*
X-3198000Y-680820D03*
X-2324907Y-940499D03*
X-2578907Y-940499D03*
D36*
X-3222201Y-1073647D03*
X-3730201Y-1073647D03*
X-2357799Y-570343D03*
X-2865799Y-570343D03*
D33*
X-2050000Y-254000D03*
X-2050000Y+0D03*
X-2050000Y+254000D03*
D37*
X-470781Y-3947282D03*
X+1279220Y-3947282D03*
D36*
X+3560000Y-4704000D03*
X+3560000Y-3688000D03*
X+4626353Y-3377799D03*
X+4626353Y-2869799D03*
D38*
X+3556000Y-3010000D03*
D39*
X+3556000Y-3264000D03*
X+4318000Y-3264000D03*
X+4318000Y-3010000D03*
D36*
X-547701Y-3296990D03*
X+468299Y-3296990D03*
X-4308000Y-2300000D03*
X-3800000Y-2300000D03*
D38*
X-4409000Y-2655000D03*
D39*
X-4409000Y-2909000D03*
X-3647000Y-2909000D03*
X-3647000Y-2655000D03*
D36*
X-1396000Y-3823980D03*
X-2412000Y-3823980D03*
X-3376000Y-2612000D03*
X-3376000Y-3628000D03*
X+4204000Y-320000D03*
X+4204000Y+696000D03*
X+2433738Y+1603738D03*
X+3449738Y+1603738D03*
X-2650000Y+1600000D03*
X-3158000Y+1600000D03*
D38*
X-2529500Y+868000D03*
D39*
X-2529500Y+1122000D03*
X-3291500Y+1122000D03*
X-3291500Y+868000D03*
D36*
X-1601999Y-478200D03*
X-1601999Y+537800D03*
X-3690000Y+1574000D03*
X-3690000Y+558000D03*
X+3608000Y+1250000D03*
X+3100000Y+1250000D03*
D38*
X+3664500Y+609500D03*
D39*
X+3664500Y+863500D03*
X+2902500Y+863500D03*
X+2902500Y+609500D03*
D32*
X-3355000Y+2234000D03*
X-3101000Y+2234000D03*
X-2847000Y+2234000D03*
X-2593000Y+2234000D03*
X+2696000Y+2200000D03*
X+2950000Y+2200000D03*
X+3204000Y+2200000D03*
X+3458000Y+2200000D03*
D20*
X-4914982Y-5118580D02*
X+5085018Y-5118580D01*
X+5085018Y+2881420D01*
X-4914982Y+2881420D01*
X-4914982Y-5118580D01*
M02*
